<svg version="1.1" xmlns="http://www.w3.org/2000/svg" viewBox="-58.696167346498285 -99.20856449527027 88.83731558772017 203.52877697250483" fill="none" stroke="black" stroke-width="0.6%" vector-effect="non-scaling-stroke">
    <path d="M -24.98682 59.54676 L -28.49139 53.1468" />
    <path d="M -22.96571 58.78866 A 21.5 16.59893 0 0 1 -24.98682 59.54676 L -24.98682 55.09777" />
    <path d="M -27.62003 54.73805 A 12.5 9.65054 360 0 1 -28.49139 55.05351 L -28.49139 53.1468" />
    <path d="M -42.99993 22.20272 A 32.5 25.09141 180 0 0 -46.01426 23.05374" />
    <path d="M -39.41645 35.10247 L -46.01426 23.05374" />
    <path d="M -20.70345 69.27563 L -28.49139 55.05351" />
    <path d="M -41.73089 24.52021 L -46.01426 16.69804 L -46.01426 23.05374" />
    <path d="M -20.70345 62.91994 L -24.98682 55.09777" />
    <path d="M -46.01426 -37.96096 L -50.29762 -55.31667" />
    <path d="M -46.01426 -37.96096 L -46.01426 -35.41868 L -46.20895 -37.04537 L -47.18245 -38.82313" />
    <path d="M -47.18245 -37.55199 L -47.18245 -38.82313" />
    <path d="M -47.18245 -37.55199 L -57.69617 -56.75186 A 62.5 48.25272 360 0 1 -50.29762 -58.75452" />
    <path d="M -57.69617 -49.76059 L -57.69617 -56.75186" />
    <path d="M -46.79305 -29.84962 L -57.69617 -49.76059" />
    <path d="M -46.79305 -29.84962 L -46.79305 27.35165 L -57.69617 7.44068 A 62.5 48.25272 360 0 1 -46.79305 4.75997" />
    <path d="M -57.69617 14.43195 L -57.69617 7.44068" />
    <path d="M -47.18245 33.63182 L -57.69617 14.43195" />
    <path d="M -46.79305 35.61406 L -47.18245 33.63182" />
    <path d="M -46.01426 37.03627 L -46.79305 35.61406" />
    <path d="M -46.01426 35.76513 L -46.01426 37.03627 A 32.5 25.09141 360 0 1 -45.42127 36.84803" />
    <path d="M -38.22632 49.98726 L -46.01426 35.76513" />
    <path d="M -38.22632 49.98726 L -38.22632 54.43624" />
    <path d="M -28.49139 72.2139 L -38.22632 54.43624" />
    <path d="M -28.49139 72.2139 L -28.49139 67.76491" />
    <path d="M -20.70345 81.98703 L -28.49139 67.76491" />
    <path d="M -20.70345 81.98703 L -20.70345 83.25817" />
    <path d="M -19.92466 84.68038 L -20.70345 83.25817" />
    <path d="M -19.92466 84.68038 L -19.53526 84.12035" />
    <path d="M -9.02154 103.32021 L -19.53526 84.12035" />
    <path d="M -9.02154 96.32894 L -9.02154 103.32021 A 62.5 48.25272 180 0 0 29.14115 58.87608" />
    <path d="M -9.02154 96.32894 L -19.92466 76.41797 A 34.5 26.6355 180 0 0 1.14115 51.88481" />
    <path d="M -19.92466 19.2167 L -19.92466 76.41797" />
    <path d="M -9.02154 39.12767 L -19.92466 19.2167" />
    <path d="M -9.02154 32.1364 L -9.02154 39.12767 A 62.5 48.25272 180 0 0 29.14115 -5.31646" />
    <path d="M -9.02154 32.1364 L -19.53526 12.93654 A 35.5 27.40754 180 0 0 -8.90565 7.56082" />
    <path d="M -19.53526 12.93654 L -19.53526 11.6654 A 35.5 27.40754 180 0 0 -9.40496 6.64898" />
    <path d="M -19.53526 11.6654 L -20.50875 9.88763 A 33 25.47743 180 0 0 -10.44277 4.75376" />
    <path d="M -20.70345 10.80322 L -20.50875 9.88763" />
    <path d="M -20.70345 8.26094 L -20.70345 10.80322" />
    <path d="M -20.70345 8.26094 L -16.42008 6.54956 L -10.51485 4.62213" />
    <path d="M -16.42008 6.54956 L -16.42008 -6.16183" />
    <path d="M 0.12929 24.06017 L -16.42008 -6.16183" />
    <path d="M 0.12929 24.06017 L 0.12929 4.99308 A 15 8.78106 151.29518 0 1 13.28588 7.32217 L -3.2635 -22.89984 A 15 8.78106 331.29518 0 0 -16.42008 -25.22893 L 0.12929 4.99308" />
    <path d="M -16.42008 -25.22893 L -16.42008 -30.31348 L -1.68296 -35.12359 L 0.56444 -35.98931 A 20 15.44087 180 0 0 10.5291 -49.34571 L 10.5291 -12.48266" />
    <path d="M -50.29762 -92.17971 L -16.42008 -30.31348" />
    <path d="M -50.29762 -92.17971 L -50.29762 -55.31667" />
    <path d="M -20.70345 62.91994 L -20.70345 69.27563" />
    <path d="M -38.22632 37.27586 L -38.22632 35.36915 L -38.86576 34.20142 L -38.86576 36.10813 L -38.22632 36.30842" />
    <path d="M -38.22632 37.27586 L -38.86576 36.10813" />
    <path d="M -39.41645 35.10247 L -39.41645 33.19576 L -41.73089 28.9692 L -41.73089 24.52021" />
    <path d="M -35.5605 -96.98982 L -50.29762 -92.17971" />
    <path d="M -34.38845 -97.33929 L -35.5605 -96.98982" />
    <path d="M -9.35116 -88.78032 A 20 15.44087 180 0 0 -34.38845 -97.33929" />
    <path d="M 8.9505 -55.35834 L -9.35116 -88.78032" />
    <path d="M 10.5291 -49.34571 A 20 15.44087 180 0 0 8.9505 -55.35834" />
    <path d="M -1.68296 -20.01351 L -1.68296 -35.12359" />
    <path d="M 13.28588 7.32217 A 15 8.78106 151.29518 0 1 0.12929 24.06017" />
    <path d="M -19.00211 7.66051 A 32.5 25.09141 360 0 1 -20.70345 8.26094" />
    <path d="M -46.01426 -37.10835 A 33 25.47743 180 0 0 -46.20895 -37.04537" />
    <path d="M -46.29579 -39.10171 A 35.5 27.40754 180 0 0 -47.18245 -38.82313" />
    <path d="M -19.92466 84.68038 A 34.5 26.6355 180 0 0 -19.33645 84.4834" />
    <path d="M 0.56444 -15.90937 L 0.56444 -35.98931" />
    <path d="M 7.14618 -3.88997 A 20 15.44087 180 0 0 10.5291 -12.48266" />
    <path d="M 10.5291 -46.66234 A 62.5 48.25272 360 0 1 29.14115 -12.30773 L 29.14115 -5.31646" />
    <path d="M 29.14115 -12.30773 A 62.5 48.25272 360 0 1 -9.02154 32.1364" />
    <path d="M 16.97891 23.28418 A 62.5 48.25272 360 0 1 29.14115 51.88481 L 29.14115 58.87608" />
    <path d="M 29.14115 51.88481 A 62.5 48.25272 360 0 1 -9.02154 96.32894" />
    <path d="M -28.49139 72.2139 A 12.5 9.65054 180 0 0 -26.50363 71.3949" />
    <path d="M -19.00211 7.66051 C -18.86 7.61 -18.73 7.56 -18.5843 7.50201 C -18.44 7.45 -18.3 7.39 -18.15545 7.34005 C -18.01 7.29 -17.86 7.23 -17.71479 7.17443 C -17.57 7.12 -17.41 7.06 -17.26156 7.00498 C -17.11 6.95 -16.95 6.89 -16.795 6.83156 C -16.64 6.77 -16.48 6.71 -16.31433 6.65403 C -16.15 6.59 -15.99 6.53 -15.8188 6.47227 C -15.65 6.41 -15.48 6.35 -15.30764 6.28618 C -15.22 6.25 -15.13 6.22 -15.0423 6.19017 C -14.95 6.16 -14.86 6.13 -14.7727 6.09304 C -14.68 6.06 -14.59 6.03 -14.49874 5.99478 C -14.41 5.96 -14.31 5.93 -14.22034 5.89541 C -14.13 5.86 -14.03 5.83 -13.93744 5.79493 C -13.84 5.76 -13.75 5.73 -13.64997 5.69335 C -13.55 5.66 -13.46 5.63 -13.35786 5.59069 C -13.26 5.56 -13.16 5.52 -13.06106 5.48697 C -12.96 5.45 -12.86 5.42 -12.75954 5.38222 C -12.66 5.35 -12.56 5.31 -12.45326 5.27645 C -12.35 5.24 -12.25 5.21 -12.14219 5.16971 C -12.04 5.13 -11.93 5.1 -11.82631 5.06203 C -11.72 5.03 -11.61 4.99 -11.5056 4.95345 C -11.4 4.92 -11.29 4.88 -11.18006 4.84402 C -11.07 4.81 -10.96 4.77 -10.84969 4.73378 C -10.74 4.7 -10.63 4.66 -10.5145 4.62278" />
    <path d="M 1.14115 34.91878 L 1.14115 51.88481" />
</svg>